<?xml version="1.0" encoding="utf-8"?>
<!-- Generator: Adobe Illustrator 19.1.0, SVG Export Plug-In . SVG Version: 6.00 Build 0)  -->
<svg version="1.1" id="Layer_1" xmlns="http://www.w3.org/2000/svg" xmlns:xlink="http://www.w3.org/1999/xlink" x="0px" y="0px"
	 viewBox="0 0 1000 359.2" enable-background="new 0 0 1000 359.2" xml:space="preserve">
<g>
	<path d="M958.6,272.7c-23.2,0-44,16.7-45.2,42.1c-1.1,26.6,18.2,44.4,41.4,44.4c23.2,0,44-17.8,45.2-44.4
		C1001.1,289.4,981.7,272.7,958.6,272.7z"/>
	<path d="M860.1,53.4c0,0.1,0,0.2,0,0.2c0,0.2,0,0.3,0,0.5L860.1,53.4z"/>
	<path d="M886.3,108.2c-14.6,0-30.6,4.9-30.6-9.7c0-7.7,3.3-35,4.3-44.9c1.5-13.8-6.7-18.2-19.1-18.2c-19.6,0-45.3,2.5-62.9,11.1
		c-13.6,6.5-21.9,20.6-23.6,36.2L735.9,252l0,0c0,0-3.2,31.7-23,31.7c-10.5,0-18.2-6.4-17.8-16.9l26.5-243.6
		C721.5,4.4,710.8,0,693.9,0c-24.7,0-56.8,7.8-80.5,15.5c-19.4,6.3-41.7,14.1-41.7,38.3c0,9.7,5.3,14.1,15,14.1c3.9,0,7.8-1,11.6-1
		c8.2,0,10.2,3.9,9.2,11.6c-4.9,43.8-15.4,112.3-23.1,177.4c-0.9,6.1-5.5,29-22,29c-8.5,0-16.6-6.1-16.4-16c0.1-6.6,0.8-13.5,1.1-18
		c3.9-52.4,12.6-96.1,14.6-125.2c1-13.6-6.3-18.4-19.9-18.4c-15,0-27.7,5.8-41.2,12.6c-4.4,2.4-13.1,7.8-18.4,7.8
		c-14.1,0-27.7-23.3-61.6-19.9c-54.7,5-98.4,50-119.5,108l0-0.1c0,0-1.4,5.3-4.7,5.3c-3.3,0-5.8-10.6-5.8-10.6l-0.1,0.1
		c-12.5-42.8-52.1-63-93.4-85.5c-14.1-7.3-30.1-17-30.1-34.9c0-13.6,10.2-20.4,22.8-20.4c32.5,0,42.7,50.5,78.1,50.5
		c22.3,0,37.8-19.9,37.8-41.2c0-25.2-23.8-69.4-52.4-69.4c-13.6,0-22.3,8.2-28.6,8.2c-6.3,0-25.2-8.2-49-8.2
		c-67,0-132,39.8-132,112.6c0,92.7,115.5,110.6,115.5,153.3c0,18.4-16,22.9-32.5,22.9c-26.2,0-40.8-19.5-49.5-41.3
		c-7.3-18.9-14.6-41.7-39.3-41.7C11.6,215.4,0,236.7,0,260.5C0,333.8,69.4,359,133.4,359c42.9,0,90.4-11.2,122.6-37.4l0.1,1.8
		l1.1-0.9c11.9-10,20.1-19.2,25.9-19.2c4.5,0,5.9,3.4,6.8,8.3l0.1-0.2c6.4,27,25.1,47.6,58.8,47.6c50,0,73.8-43.7,86.4-43.7
		c15.5,0-5.3,43.7,37.8,43.7c14,0,40.1-7.6,61.8-19.3l0.1,0.3c0,0,17.2-9.6,29.6-9.6c0,0,11.5,0,17.3,9.6l0-0.1
		c5.8,13.9,18.7,19.3,36.1,19.3c17.5,0,49.5-6.6,74.6-19.2l0,0c0,0,18.5-9.6,27.8-9.6c0,0,6.8-0.4,12.2,9.6l0.3-0.5
		c6.7,13.2,21.3,19.5,40.6,19.5c28.1,0,120.3-31.1,120.3-68.9c0-8.2-2.9-17.5-13.1-17.5c-7.3,0-16,9.2-27.7,9.2
		c-12.1,0-16.4-13.5-14.2-34.5l5.4-48c4.6-42.5,7.3-40.8,40.8-40.8c13.1,0,13.1-10.2,14.6-20.9c1-6.3,2.4-14.1,2.4-20.9
		C901.9,109.6,892.6,108.2,886.3,108.2z M406.9,286c-9.7,1-11.2-11.6-11.2-18.9c-0.5-31.1,32-103.3,57.7-105.3
		c7.8-0.5,9.7,9.2,9.7,15.5C464.2,201.6,432.6,284,406.9,286z"/>
</g>
</svg>
